<?xml version="1.0" encoding="UTF-8" standalone="no"?>
<!-- Generator: Adobe Illustrator 19.0.0, SVG Export Plug-In . SVG Version: 6.00 Build 0)  -->

<svg
   xmlns:dc="http://purl.org/dc/elements/1.1/"
   xmlns:cc="http://creativecommons.org/ns#"
   xmlns:rdf="http://www.w3.org/1999/02/22-rdf-syntax-ns#"
   xmlns:svg="http://www.w3.org/2000/svg"
   xmlns="http://www.w3.org/2000/svg"
   xmlns:sodipodi="http://sodipodi.sourceforge.net/DTD/sodipodi-0.dtd"
   xmlns:inkscape="http://www.inkscape.org/namespaces/inkscape"
   version="1.1"
   id="Layer_1"
   x="0px"
   y="0px"
   viewBox="0 0 18 18"
   xml:space="preserve"
   sodipodi:docname="flip-left.svg"
   width="18"
   height="18"
   inkscape:version="0.92.5 (2060ec1f9f, 2020-04-08)"><metadata
   id="metadata55"><rdf:RDF><cc:Work
       rdf:about=""><dc:format>image/svg+xml</dc:format><dc:type
         rdf:resource="http://purl.org/dc/dcmitype/StillImage" /><dc:title></dc:title></cc:Work></rdf:RDF></metadata><defs
   id="defs53" /><sodipodi:namedview
   pagecolor="#ffffff"
   bordercolor="#666666"
   borderopacity="1"
   objecttolerance="10"
   gridtolerance="10"
   guidetolerance="10"
   inkscape:pageopacity="0"
   inkscape:pageshadow="2"
   inkscape:window-width="1920"
   inkscape:window-height="1010"
   id="namedview51"
   showgrid="false"
   inkscape:zoom="4.8753319"
   inkscape:cx="20.124349"
   inkscape:cy="-3.5888824"
   inkscape:window-x="0"
   inkscape:window-y="0"
   inkscape:window-maximized="1"
   inkscape:current-layer="Layer_1" />
<g
   id="g6"
   transform="matrix(-0.04054054,0,0,0.03515625,19.378378,0)">
	<g
   id="g4">
		<path
   d="m 434.475,246.476 c -24,0 -43.525,19.525 -43.525,43.524 0,74.413 -60.538,134.952 -134.951,134.952 -74.413,0 -134.95,-60.539 -134.95,-134.952 0,-51.821 29.943,-98.87 75.856,-121.303 v 17.055 c 0,23.999 19.525,43.524 43.525,43.524 11.626,0 22.554,-4.526 30.777,-12.747 l 71.113,-71.114 c 8.222,-8.221 12.748,-19.151 12.748,-30.777 0,-11.626 -4.526,-22.556 -12.748,-30.777 L 271.207,12.748 C 262.985,4.527 252.054,0 240.429,0 c -24,0 -43.524,19.525 -43.524,43.525 V 75.923 C 160.071,86.042 126.368,105.675 99.022,133.021 57.093,174.952 34,230.701 34,289.999 34,349.298 57.093,405.047 99.023,446.977 140.952,488.907 196.701,512 256,512 315.299,512 371.047,488.908 412.977,446.978 454.907,405.048 478,349.299 478,290 c 0,-23.999 -19.525,-43.524 -43.525,-43.524 z m -35.92,186.076 c -38.077,38.079 -88.704,59.049 -142.554,59.049 -53.85,0 -104.478,-20.971 -142.554,-59.048 C 75.368,394.476 54.398,343.85 54.398,289.999 c 0,-53.85 20.971,-104.477 59.049,-142.554 26.597,-26.596 59.79,-45.155 95.992,-53.67 4.608,-1.083 7.865,-5.194 7.865,-9.928 V 43.525 c 0,-12.752 10.375,-23.127 23.127,-23.127 6.178,0 11.985,2.405 16.353,6.773 l 71.113,71.113 c 4.369,4.367 6.774,10.176 6.774,16.352 0,6.176 -2.406,11.985 -6.774,16.352 l -71.112,71.114 c -4.368,4.368 -10.176,6.773 -16.353,6.773 -12.752,0 -23.127,-10.375 -23.127,-23.126 v -32.415 c 0,-3.32 -1.616,-6.432 -4.331,-8.342 -2.713,-1.909 -6.188,-2.382 -9.314,-1.258 -61.612,22.109 -103.008,80.887 -103.008,146.263 0,85.66 69.69,155.349 155.35,155.349 85.66,0 155.349,-69.69 155.349,-155.35 0,-12.751 10.375,-23.126 23.127,-23.126 12.752,0 23.127,10.375 23.127,23.126 -0.001,53.853 -20.972,104.48 -59.05,142.556 z"
   id="path2"
   inkscape:connector-curvature="0" />
	</g>
</g>


<g
   id="g20"
   transform="translate(0,-494)">
</g>
<g
   id="g22"
   transform="translate(0,-494)">
</g>
<g
   id="g24"
   transform="translate(0,-494)">
</g>
<g
   id="g26"
   transform="translate(0,-494)">
</g>
<g
   id="g28"
   transform="translate(0,-494)">
</g>
<g
   id="g30"
   transform="translate(0,-494)">
</g>
<g
   id="g32"
   transform="translate(0,-494)">
</g>
<g
   id="g34"
   transform="translate(0,-494)">
</g>
<g
   id="g36"
   transform="translate(0,-494)">
</g>
<g
   id="g38"
   transform="translate(0,-494)">
</g>
<g
   id="g40"
   transform="translate(0,-494)">
</g>
<g
   id="g42"
   transform="translate(0,-494)">
</g>
<g
   id="g44"
   transform="translate(0,-494)">
</g>
<g
   id="g46"
   transform="translate(0,-494)">
</g>
<g
   id="g48"
   transform="translate(0,-494)">
</g>
<path
   style="fill:#ffffff;stroke-width:0.20511425"
   d="M 7.0620289,16.984887 C 4.9805148,16.573437 2.5329712,14.800345 1.6456559,13.061064 1.4235739,12.625747 1.1517587,11.794421 1.0416222,11.213674 0.8736198,10.327801 0.89621728,10.097168 1.1819537,9.7814329 1.8641223,9.0276451 2.5672639,9.5815132 2.7484778,11.015392 c 0.3499733,2.769208 3.5951641,4.983505 6.8572062,4.678891 5.06608,-0.473078 7.54639,-5.671751 4.298415,-9.0093769 -0.908735,-0.9338185 -2.664301,-1.8901183 -3.13692,-1.7087573 -0.165123,0.063364 -0.283199,0.4036822 -0.283199,0.8162353 0,1.8345352 -0.7712048,1.8364596 -2.8715997,0.00716 C 6.7662841,5.062659 6.0462693,4.2935161 6.0123473,4.0903422 5.9710293,3.8428694 6.5067483,3.2372602 7.6353371,2.2556163 9.8530561,0.32664953 10.394379,0.33624088 10.522138,2.3067657 l 0.0644,0.993267 1.128128,0.3495492 c 0.620471,0.1922521 1.353164,0.4708112 1.628207,0.6190204 0.93144,0.5019143 2.51232,2.1490715 3.055736,3.1838468 0.460895,0.8776398 0.540777,1.2870029 0.541132,2.7731039 3.48e-4,1.42746 -0.08543,1.905173 -0.473201,2.635598 -1.706659,3.214737 -5.527468,4.890104 -9.4045101,4.123736 z"
   id="path110"
   inkscape:connector-curvature="0" /><path
   style="fill:#ffffff;stroke-width:0.20511425"
   d="M 6.9351916,16.974729 C 4.794693,16.470997 2.5347016,14.803737 1.6550005,13.079381 1.4335783,12.645357 1.1515098,11.819744 1.0281818,11.244685 0.83330468,10.336005 0.85098616,10.147148 1.1632411,9.8021099 1.3608519,9.5837526 1.6323744,9.4050965 1.7666244,9.4050965 c 0.4233848,0 0.9228369,0.7266235 0.9275188,1.3493935 0.011482,1.527446 1.5341576,3.472632 3.3797616,4.317578 3.1819587,1.456749 6.9643502,0.341272 8.6676412,-2.5562 0.461125,-0.784422 0.56125,-1.197581 0.555032,-2.290315 -0.0121,-2.1257742 -1.10694,-3.7738991 -3.21743,-4.8433654 -1.236375,-0.6265184 -1.595168,-0.5342549 -1.595168,0.4101965 0,1.8273345 -0.721392,1.8251315 -2.8946426,-0.00884 -0.9101335,-0.768047 -1.617871,-1.5260174 -1.617871,-1.7327022 0,-0.4440567 3.1937456,-3.26054434 3.6972822,-3.26054434 0.5425814,0 0.7827384,0.42675714 0.8533894,1.51646794 l 0.0644,0.9932664 1.128128,0.3495492 c 0.620471,0.1922521 1.353164,0.4708112 1.628207,0.6190204 0.93144,0.5019143 2.51232,2.1490715 3.055736,3.1838468 0.460895,0.8776398 0.540777,1.2870029 0.541132,2.7731037 4.71e-4,1.988085 -0.356751,2.887577 -1.744828,4.393462 -1.865277,2.023587 -5.3942271,3.030062 -8.2597204,2.355714 z"
   id="path112"
   inkscape:connector-curvature="0" /></svg>