<?xml version="1.0" encoding="UTF-8" standalone="no"?>
<!-- Generator: Adobe Illustrator 19.0.0, SVG Export Plug-In . SVG Version: 6.00 Build 0)  -->

<svg
   xmlns:dc="http://purl.org/dc/elements/1.1/"
   xmlns:cc="http://creativecommons.org/ns#"
   xmlns:rdf="http://www.w3.org/1999/02/22-rdf-syntax-ns#"
   xmlns:svg="http://www.w3.org/2000/svg"
   xmlns="http://www.w3.org/2000/svg"
   xmlns:sodipodi="http://sodipodi.sourceforge.net/DTD/sodipodi-0.dtd"
   xmlns:inkscape="http://www.inkscape.org/namespaces/inkscape"
   version="1.1"
   id="Layer_1"
   x="0px"
   y="0px"
   viewBox="0 0 18 18"
   xml:space="preserve"
   sodipodi:docname="flip-right.svg"
   width="18"
   height="18"
   inkscape:version="0.92.5 (2060ec1f9f, 2020-04-08)"><metadata
   id="metadata55"><rdf:RDF><cc:Work
       rdf:about=""><dc:format>image/svg+xml</dc:format><dc:type
         rdf:resource="http://purl.org/dc/dcmitype/StillImage" /><dc:title /></cc:Work></rdf:RDF></metadata><defs
   id="defs53" /><sodipodi:namedview
   pagecolor="#ffffff"
   bordercolor="#666666"
   borderopacity="1"
   objecttolerance="10"
   gridtolerance="10"
   guidetolerance="10"
   inkscape:pageopacity="0"
   inkscape:pageshadow="2"
   inkscape:window-width="1920"
   inkscape:window-height="1010"
   id="namedview51"
   showgrid="false"
   inkscape:zoom="4.8753319"
   inkscape:cx="-18.334571"
   inkscape:cy="-3.5888824"
   inkscape:window-x="0"
   inkscape:window-y="0"
   inkscape:window-maximized="1"
   inkscape:current-layer="Layer_1" />
<g
   id="g6"
   transform="matrix(0.04054054,0,0,0.03515625,-1.3783784,0)">
	<g
   id="g4">
		<path
   d="m 434.475,246.476 c -24,0 -43.525,19.525 -43.525,43.524 0,74.413 -60.538,134.952 -134.951,134.952 -74.413,0 -134.95,-60.539 -134.95,-134.952 0,-51.821 29.943,-98.87 75.856,-121.303 v 17.055 c 0,23.999 19.525,43.524 43.525,43.524 11.626,0 22.554,-4.526 30.777,-12.747 l 71.113,-71.114 c 8.222,-8.221 12.748,-19.151 12.748,-30.777 0,-11.626 -4.526,-22.556 -12.748,-30.777 L 271.207,12.748 C 262.985,4.527 252.054,0 240.429,0 c -24,0 -43.524,19.525 -43.524,43.525 V 75.923 C 160.071,86.042 126.368,105.675 99.022,133.021 57.093,174.952 34,230.701 34,289.999 34,349.298 57.093,405.047 99.023,446.977 140.952,488.907 196.701,512 256,512 315.299,512 371.047,488.908 412.977,446.978 454.907,405.048 478,349.299 478,290 c 0,-23.999 -19.525,-43.524 -43.525,-43.524 z m -35.92,186.076 c -38.077,38.079 -88.704,59.049 -142.554,59.049 -53.85,0 -104.478,-20.971 -142.554,-59.048 C 75.368,394.476 54.398,343.85 54.398,289.999 c 0,-53.85 20.971,-104.477 59.049,-142.554 26.597,-26.596 59.79,-45.155 95.992,-53.67 4.608,-1.083 7.865,-5.194 7.865,-9.928 V 43.525 c 0,-12.752 10.375,-23.127 23.127,-23.127 6.178,0 11.985,2.405 16.353,6.773 l 71.113,71.113 c 4.369,4.367 6.774,10.176 6.774,16.352 0,6.176 -2.406,11.985 -6.774,16.352 l -71.112,71.114 c -4.368,4.368 -10.176,6.773 -16.353,6.773 -12.752,0 -23.127,-10.375 -23.127,-23.126 v -32.415 c 0,-3.32 -1.616,-6.432 -4.331,-8.342 -2.713,-1.909 -6.188,-2.382 -9.314,-1.258 -61.612,22.109 -103.008,80.887 -103.008,146.263 0,85.66 69.69,155.349 155.35,155.349 85.66,0 155.349,-69.69 155.349,-155.35 0,-12.751 10.375,-23.126 23.127,-23.126 12.752,0 23.127,10.375 23.127,23.126 -0.001,53.853 -20.972,104.48 -59.05,142.556 z"
   id="path2"
   inkscape:connector-curvature="0" />
	</g>
</g>


<g
   id="g20"
   transform="translate(0,-494)">
</g>
<g
   id="g22"
   transform="translate(0,-494)">
</g>
<g
   id="g24"
   transform="translate(0,-494)">
</g>
<g
   id="g26"
   transform="translate(0,-494)">
</g>
<g
   id="g28"
   transform="translate(0,-494)">
</g>
<g
   id="g30"
   transform="translate(0,-494)">
</g>
<g
   id="g32"
   transform="translate(0,-494)">
</g>
<g
   id="g34"
   transform="translate(0,-494)">
</g>
<g
   id="g36"
   transform="translate(0,-494)">
</g>
<g
   id="g38"
   transform="translate(0,-494)">
</g>
<g
   id="g40"
   transform="translate(0,-494)">
</g>
<g
   id="g42"
   transform="translate(0,-494)">
</g>
<g
   id="g44"
   transform="translate(0,-494)">
</g>
<g
   id="g46"
   transform="translate(0,-494)">
</g>
<g
   id="g48"
   transform="translate(0,-494)">
</g>
<path
   style="fill:#ffffff;stroke-width:0.20511425"
   d="M 6.7108276,16.874841 C 3.1089319,15.906236 0.77539294,13.022586 0.99804902,9.815325 1.1155021,8.1234654 1.8030788,6.7341413 3.1433818,5.4804447 4.3254747,4.3747352 4.7627206,4.119442 6.2791378,3.6495819 L 7.4072661,3.3000328 7.4716646,2.3067664 C 7.5423162,1.2170555 7.782473,0.79029841 8.3250543,0.79029841 c 0.5035366,0 3.6972817,2.81648759 3.6972817,3.26054439 0,0.2066848 -0.707737,0.9646551 -1.61787,1.7327021 -2.1732511,1.8339708 -2.8946428,1.8361737 -2.8946428,0.00884 0,-0.9298511 -0.3429518,-1.029791 -1.5651632,-0.4561055 -3.6736034,1.7243277 -4.4191304,6.0326636 -1.5002326,8.6697116 1.1268786,1.018068 2.3433869,1.538854 3.9436915,1.688293 3.2620421,0.304614 6.5072331,-1.909683 6.8572061,-4.678891 0.181214,-1.433879 0.884356,-1.9877471 1.566524,-1.2339593 0.285737,0.3157353 0.308334,0.5463683 0.140332,1.4322413 -0.800909,4.223172 -5.640533,6.898397 -10.2413534,5.661166 z"
   id="path136"
   inkscape:connector-curvature="0" /></svg>