<?xml version="1.0" encoding="iso-8859-1"?>
<!-- Generator: Adobe Illustrator 19.0.0, SVG Export Plug-In . SVG Version: 6.00 Build 0)  -->
<svg version="1.1" id="Layer_1" xmlns="http://www.w3.org/2000/svg" xmlns:xlink="http://www.w3.org/1999/xlink" x="0px" y="0px"
	 viewBox="0 0 512 512" style="enable-background:new 0 0 512 512;" xml:space="preserve">
<g>
	<g>
		<path d="M434.475,246.476c-24,0-43.525,19.525-43.525,43.524c0,74.413-60.538,134.952-134.951,134.952
			S121.049,364.413,121.049,290c0-51.821,29.943-98.87,75.856-121.303v17.055c0,23.999,19.525,43.524,43.525,43.524
			c11.626,0,22.554-4.526,30.777-12.747l71.113-71.114c8.222-8.221,12.748-19.151,12.748-30.777
			c0-11.626-4.526-22.556-12.748-30.777l-71.113-71.113C262.985,4.527,252.054,0,240.429,0c-24,0-43.524,19.525-43.524,43.525
			v32.398c-36.834,10.119-70.537,29.752-97.883,57.098C57.093,174.952,34,230.701,34,289.999
			c0,59.299,23.093,115.048,65.023,156.978C140.952,488.907,196.701,512,256,512s115.047-23.092,156.977-65.022S478,349.299,478,290
			C478,266.001,458.475,246.476,434.475,246.476z M398.555,432.552c-38.077,38.079-88.704,59.049-142.554,59.049
			s-104.478-20.971-142.554-59.048c-38.079-38.077-59.049-88.703-59.049-142.554c0-53.85,20.971-104.477,59.049-142.554
			c26.597-26.596,59.79-45.155,95.992-53.67c4.608-1.083,7.865-5.194,7.865-9.928V43.525c0-12.752,10.375-23.127,23.127-23.127
			c6.178,0,11.985,2.405,16.353,6.773l71.113,71.113c4.369,4.367,6.774,10.176,6.774,16.352s-2.406,11.985-6.774,16.352
			l-71.112,71.114c-4.368,4.368-10.176,6.773-16.353,6.773c-12.752,0-23.127-10.375-23.127-23.126v-32.415
			c0-3.32-1.616-6.432-4.331-8.342c-2.713-1.909-6.188-2.382-9.314-1.258c-61.612,22.109-103.008,80.887-103.008,146.263
			c0,85.66,69.69,155.349,155.35,155.349s155.349-69.69,155.349-155.35c0-12.751,10.375-23.126,23.127-23.126
			c12.752,0,23.127,10.375,23.127,23.126C457.604,343.849,436.633,394.476,398.555,432.552z"/>
	</g>
</g>
<g>
	<g>
		<path d="M274.175,159.653c-3.985-3.982-10.441-3.982-14.425,0l-1.6,1.6c-3.983,3.984-3.983,10.442,0,14.425
			c1.992,1.991,4.601,2.987,7.212,2.987c2.61,0,5.22-0.996,7.213-2.987l1.6-1.6C278.158,170.094,278.158,163.636,274.175,159.653z"
			/>
	</g>
</g>
<g>
	<g>
		<path d="M323.127,110.765c-3.985-3.982-10.441-3.982-14.425,0l-26.463,26.463c-3.983,3.984-3.983,10.442,0,14.425
			c1.992,1.991,4.601,2.987,7.212,2.987c2.61,0,5.22-0.995,7.213-2.987l26.463-26.463
			C327.109,121.206,327.109,114.748,323.127,110.765z"/>
	</g>
</g>
<g>
</g>
<g>
</g>
<g>
</g>
<g>
</g>
<g>
</g>
<g>
</g>
<g>
</g>
<g>
</g>
<g>
</g>
<g>
</g>
<g>
</g>
<g>
</g>
<g>
</g>
<g>
</g>
<g>
</g>
</svg>
